<svg id="Group_63410" data-name="Group 63410" xmlns="http://www.w3.org/2000/svg" xmlns:xlink="http://www.w3.org/1999/xlink" width="375" height="386" viewBox="0 0 375 386">
  <defs>
    <linearGradient id="linear-gradient" x1="0.5" y1="0.343" x2="0.5" y2="0.953" gradientUnits="objectBoundingBox">
      <stop offset="0" stop-color="#fff" stop-opacity="0"/>
      <stop offset="1" stop-color="#fff"/>
    </linearGradient>
  </defs>
  <g id="Group_62703" data-name="Group 62703" transform="translate(3.876 -4)">
    <g id="Group_61766" data-name="Group 61766" transform="translate(61.348 173.816)">
      <g id="Group_61763" data-name="Group 61763" transform="translate(0 41.765)">
        <g id="Group_61762" data-name="Group 61762">
          <path id="Path_2997" data-name="Path 2997" d="M406.26,168.734v1.288l241.633-.5h1.459c.832,0,1.46-.3,1.46-.644,0-.369-.628-.664-1.46-.646h-1.459Z" transform="translate(-406.26 -168.235)" fill="#1a1a51"/>
        </g>
      </g>
      <g id="Group_62697" data-name="Group 62697" transform="translate(0 -6.906)">
        <g id="Group_61762-2" data-name="Group 61762">
          <path id="Path_2997-2" data-name="Path 2997" d="M406.26,168.734v1.288l241.633-.5h1.459c.832,0,1.46-.3,1.46-.644,0-.369-.628-.664-1.46-.646h-1.459Z" transform="translate(-406.26 -168.235)" fill="#1a1a51"/>
        </g>
      </g>
      <g id="Group_61765" data-name="Group 61765" transform="translate(0 104.027)">
        <g id="Group_61764" data-name="Group 61764">
          <path id="Path_2998" data-name="Path 2998" d="M406.26,202.847v1.29l241.981.425h.791c.8,0,1.462-.3,1.462-.646s-.666-.644-1.462-.644h-.791Z" transform="translate(-406.26 -202.847)" fill="#1a1a51"/>
        </g>
      </g>
    </g>
    <g id="Group_62699" data-name="Group 62699" transform="translate(71.626 61)">
      <g id="Group_62690" data-name="Group 62690" transform="translate(49.253 52.211)">
        <path id="Path_3572" data-name="Path 3572" d="M170.57,53.16l12.915,24.172L152.809,57.017Z" transform="translate(-152.809 -53.16)" fill="#ffb700"/>
      </g>
      <g id="Group_62691" data-name="Group 62691" transform="translate(0 0)">
        <ellipse id="Ellipse_90" data-name="Ellipse 90" cx="49.253" cy="33.055" rx="49.253" ry="33.055" fill="#ffb700"/>
      </g>
    </g>
    <g id="Group_62698" data-name="Group 62698" transform="translate(-3.14 11.519)">
      <g id="Group_61767" data-name="Group 61767" transform="translate(142.272 269.738)">
        <path id="Path_2999" data-name="Path 2999" d="M547.21,260.868H451.247c6.863-19.679,11.8-30.057,11.8-30.057s75.71-32.388,81.7,9.471C545.064,242.52,545.953,249.975,547.21,260.868Z" transform="translate(-451.247 -218.86)" fill="#e2209e"/>
      </g>
      <g id="Group_61768" data-name="Group 61768" transform="translate(97.998 182.793)">
        <path id="Path_3000" data-name="Path 3000" d="M503.75,171.17s-2.423.606-3,1.513-.421,4.5-.421,4.5-26.073.712-49.754,30.652-28.427,45.612-20.2,58.166,47.567,8.316,47.567,8.316,11.716,12.135,41.841,13.006,45.854-13.249,45.854-13.249,50.012-12.426,46.056-46.813-54.289-49.808-65.413-52.123a80.824,80.824,0,0,0-19.377-1.808s-.477-1.754-1-2.056C523.12,169.655,503.75,171.17,503.75,171.17Z" transform="translate(-426.634 -170.526)" fill="#a07cf7"/>
      </g>
      <g id="Group_61769" data-name="Group 61769" transform="translate(162.23 233.672)">
        <path id="Path_3001" data-name="Path 3001" d="M468.762,199.515s-8.048-4.524-6.123,9.367c1.365,9.849,8.138-3.24,8.138-3.24Z" transform="translate(-462.342 -198.811)" fill="#fd8753"/>
      </g>
      <g id="Group_61773" data-name="Group 61773" transform="translate(162.703 152.498)">
        <g id="Group_61772" data-name="Group 61772">
          <g id="Group_61771" data-name="Group 61771">
            <g id="Group_61770" data-name="Group 61770">
              <path id="Path_3002" data-name="Path 3002" d="M474.685,154.995s-11.151-4.762-12.02,3.875c-1.006,10.005,10.951,10.1,10.951,10.1Z" transform="translate(-462.605 -153.685)" fill="#fd8753"/>
            </g>
          </g>
        </g>
      </g>
      <g id="Group_61774" data-name="Group 61774" transform="translate(164.863 155.133)">
        <path id="Path_3003" data-name="Path 3003" d="M468.172,162.819a.638.638,0,0,1-.556-.32l-3.724-6.379a.645.645,0,0,1,1.115-.649l3.722,6.379a.645.645,0,0,1-.232.881A.629.629,0,0,1,468.172,162.819Z" transform="translate(-463.805 -155.15)"/>
      </g>
      <g id="Group_61775" data-name="Group 61775" transform="translate(164.256 159.546)">
        <path id="Path_3004" data-name="Path 3004" d="M464.112,158.947a.645.645,0,0,1-.011-1.29l3.182-.054a.63.63,0,0,1,.655.635.646.646,0,0,1-.635.655l-3.18.054Z" transform="translate(-463.468 -157.603)"/>
      </g>
      <g id="Group_61779" data-name="Group 61779" transform="translate(174.607 173.712)">
        <g id="Group_61778" data-name="Group 61778">
          <g id="Group_61777" data-name="Group 61777">
            <g id="Group_61776" data-name="Group 61776">
              <path id="Path_3005" data-name="Path 3005" d="M489.506,169.362l.094,11.711a24.69,24.69,0,0,1-10.173,2.531c-7.629.13-10.2-4.4-10.2-4.4l.058-13.729Z" transform="translate(-469.222 -165.478)" fill="#fd8753"/>
            </g>
          </g>
        </g>
      </g>
      <g id="Group_61783" data-name="Group 61783" transform="translate(173.596 174.82)">
        <g id="Group_61782" data-name="Group 61782">
          <g id="Group_61781" data-name="Group 61781">
            <g id="Group_61780" data-name="Group 61780">
              <path id="Path_3006" data-name="Path 3006" d="M491.324,166.45s-5.055,10.136-13.713,9.043c-6.979-.881-8.951-9.4-8.951-9.4Z" transform="translate(-468.66 -166.094)"/>
            </g>
          </g>
        </g>
      </g>
      <g id="Group_61787" data-name="Group 61787" transform="translate(168.765 134.145)">
        <g id="Group_61786" data-name="Group 61786">
          <g id="Group_61785" data-name="Group 61785">
            <g id="Group_61784" data-name="Group 61784">
              <path id="Path_3007" data-name="Path 3007" d="M467.821,152.744s-4.891,21.433,1.248,30.926c6.584,10.18,17.186,7.141,21.154,4.089a17.915,17.915,0,0,0,6.449-9.825s7.359,1.466,9.811-4.535c2.578-6.3-2-11.389-5.684-11.689s-4.11.369-4.11.369l1.081-6.73S475.4,130.481,467.821,152.744Z" transform="translate(-465.975 -143.482)" fill="#fd8753"/>
            </g>
          </g>
        </g>
      </g>
      <g id="Group_61788" data-name="Group 61788" transform="translate(200.67 157.101)">
        <path id="Path_3008" data-name="Path 3008" d="M484.355,162.4a.645.645,0,0,1-.419-1.133l5.677-4.871a.645.645,0,0,1,.84.979l-5.677,4.871A.645.645,0,0,1,484.355,162.4Z" transform="translate(-483.711 -156.244)"/>
      </g>
      <g id="Group_61789" data-name="Group 61789" transform="translate(202.563 160.349)">
        <path id="Path_3009" data-name="Path 3009" d="M488.758,161.859a.65.65,0,0,1-.387-.13l-3.351-2.52a.644.644,0,0,1,.774-1.031l3.351,2.518a.646.646,0,0,1-.387,1.162Z" transform="translate(-484.763 -158.049)"/>
      </g>
      <g id="Group_61790" data-name="Group 61790" transform="translate(189.599 152.446)">
        <path id="Path_3010" data-name="Path 3010" d="M478.2,158.551a.653.653,0,0,1-.644-.682l.212-3.607a.678.678,0,0,1,.68-.606.646.646,0,0,1,.606.682l-.212,3.607A.643.643,0,0,1,478.2,158.551Z" transform="translate(-477.556 -153.656)"/>
      </g>
      <g id="Group_61791" data-name="Group 61791" transform="translate(175.798 151.689)">
        <path id="Path_3011" data-name="Path 3011" d="M470.528,158.13a.65.65,0,0,1-.642-.682l.21-3.607a.682.682,0,0,1,.68-.606.647.647,0,0,1,.606.682l-.212,3.607A.642.642,0,0,1,470.528,158.13Z" transform="translate(-469.884 -153.235)"/>
      </g>
      <g id="Group_61792" data-name="Group 61792" transform="translate(180.678 154.736)">
        <path id="Path_3012" data-name="Path 3012" d="M474.73,166.342a.637.637,0,0,1-.455-.189c-4.044-4.044.466-10.667.658-10.948a.645.645,0,0,1,1.061.734c-.041.059-4.091,6.019-.809,9.3a.645.645,0,0,1-.455,1.1Z" transform="translate(-472.597 -154.929)"/>
      </g>
      <g id="Group_61793" data-name="Group 61793" transform="translate(173.979 146.746)">
        <path id="Path_3013" data-name="Path 3013" d="M469.517,152.53a.645.645,0,0,1-.362-1.178,7.162,7.162,0,0,1,4.375-.809.64.64,0,0,1,.55.723.626.626,0,0,1-.723.552,5.972,5.972,0,0,0-3.479.6A.636.636,0,0,1,469.517,152.53Z" transform="translate(-468.873 -150.487)"/>
      </g>
      <g id="Group_61794" data-name="Group 61794" transform="translate(188.023 147.741)">
        <path id="Path_3014" data-name="Path 3014" d="M480.841,154.216a.644.644,0,0,1-.509-.25,5.928,5.928,0,0,0-3.123-1.646.645.645,0,0,1,.232-1.27,7.18,7.18,0,0,1,3.909,2.124.646.646,0,0,1-.509,1.042Z" transform="translate(-476.68 -151.041)"/>
      </g>
      <g id="Group_61795" data-name="Group 61795" transform="translate(198.388 148.801)">
        <path id="Path_3015" data-name="Path 3015" d="M485.86,156.43s-2.313,6.609-3.17,6.339.585-10.694,3.074-11.115S485.86,156.43,485.86,156.43Z" transform="translate(-482.442 -151.63)" fill="#592fc1"/>
      </g>
      <g id="Group_61796" data-name="Group 61796" transform="translate(153.76 252.619)">
        <path id="Path_3016" data-name="Path 3016" d="M478.489,218.551s-2.9,18.739-13.621,15.578-6.355-24.786-6.355-24.786Z" transform="translate(-457.633 -209.343)" fill="#fd8753"/>
      </g>
      <g id="Group_61797" data-name="Group 61797" transform="translate(165.078 125.812)">
        <path id="Path_3017" data-name="Path 3017" d="M499.6,165.658s-7.377-.986-12.155-5.073a19.108,19.108,0,0,1-5.427-8.163s-3.164-.565-7.843,2.006S468,165.763,468,165.763s-6.953-15.188-2.7-20.163,10.579-.356,10.579-.356-.687-9.613,12.36-5.263a23.287,23.287,0,0,1,15.5,15.92s4.535-.174,4.887,4.037a19.115,19.115,0,0,1-1.561,8.379,4.9,4.9,0,0,0-4.947-.991l-3.074.97Z" transform="translate(-463.925 -138.85)" fill="#592fc1"/>
      </g>
      <g id="Group_61798" data-name="Group 61798" transform="translate(172.403 183.203)">
        <path id="Path_3018" data-name="Path 3018" d="M470.708,170.988s2.337,2.671,8.255,3.373,11.567-3.607,11.567-3.607l3.168,7.368-9.989,4.887L468,180.2l.662-7.1Z" transform="translate(-467.997 -170.754)" fill="#a07cf7"/>
      </g>
      <g id="Group_61799" data-name="Group 61799" transform="translate(118.499 239.627)">
        <path id="Path_3019" data-name="Path 3019" d="M478.214,207.088a.643.643,0,0,1-.243-.049c-.2-.081-20-7.94-39.055-.288a.644.644,0,1,1-.48-1.194c19.548-7.857,39.819.209,40.021.288a.645.645,0,0,1-.243,1.243Z" transform="translate(-438.031 -202.121)" fill="#fff"/>
      </g>
      <g id="Group_61800" data-name="Group 61800" transform="translate(182.429 231.572)">
        <path id="Path_3020" data-name="Path 3020" d="M509.737,228.067s-8.174-21.446-9.51-22.96-17.076-7.624-19.232-7.46,1.142,5.8,2.813,7.381,3.832,3.278,3.832,3.278-11.854.21-12.99,2.608,2.006,4.537,2.006,4.537-4.249.5-2.776,3.713,13.052,6.618,13.052,6.618,2.017,13.7,9.8,16.812,11.453,2.132,11.453,2.132Z" transform="translate(-473.57 -197.643)" fill="#fd8753"/>
      </g>
      <g id="Group_61801" data-name="Group 61801" transform="translate(212.296 237.952)">
        <path id="Path_3021" data-name="Path 3021" d="M490.174,211.264s3.641-13.508,5.7-9.241.6,23.211.6,23.211l-5.38-6.3Z" transform="translate(-490.174 -201.19)" fill="#fd8753"/>
      </g>
      <g id="Group_61802" data-name="Group 61802" transform="translate(166.763 222.982)">
        <rect id="Rectangle_752" data-name="Rectangle 752" width="21.733" height="45.748" rx="1.834" transform="translate(26.285 45.509) rotate(174.147)" fill="#fff"/>
      </g>
      <g id="Group_61803" data-name="Group 61803" transform="translate(164.39 223.226)">
        <rect id="Rectangle_753" data-name="Rectangle 753" width="21.733" height="45.748" rx="1.834" transform="matrix(-0.995, 0.102, -0.102, -0.995, 26.285, 45.509)" fill="#ffb700"/>
      </g>
      <g id="Group_61807" data-name="Group 61807" transform="translate(154.641 240.235)">
        <g id="Group_61806" data-name="Group 61806">
          <g id="Group_61805" data-name="Group 61805">
            <g id="Group_61804" data-name="Group 61804">
              <path id="Path_3022" data-name="Path 3022" d="M464.693,211.549s-9.442-2.821-5.688-6.728,21.57-2.923,22.5,2.614S464.693,211.549,464.693,211.549Z" transform="translate(-458.123 -202.459)" fill="#fd8753"/>
            </g>
          </g>
        </g>
      </g>
      <g id="Group_61811" data-name="Group 61811" transform="translate(154.268 248.381)">
        <g id="Group_61810" data-name="Group 61810">
          <g id="Group_61809" data-name="Group 61809">
            <g id="Group_61808" data-name="Group 61808">
              <path id="Path_3023" data-name="Path 3023" d="M464.486,216.078s-9.442-2.822-5.688-6.728,21.57-2.925,22.5,2.612S464.486,216.078,464.486,216.078Z" transform="translate(-457.916 -206.987)" fill="#fd8753"/>
            </g>
          </g>
        </g>
      </g>
      <g id="Group_61815" data-name="Group 61815" transform="translate(157.567 256.471)">
        <g id="Group_61814" data-name="Group 61814">
          <g id="Group_61813" data-name="Group 61813">
            <g id="Group_61812" data-name="Group 61812">
              <path id="Path_3024" data-name="Path 3024" d="M467.878,219.636a12.355,12.355,0,0,1-6.2-2.085c-1.624-1.13-2.815-2.675-1.078-4.326,3.475-3.3,19.186-1.721,19.789,3.211C480.844,220.112,472.27,219.954,467.878,219.636Z" transform="translate(-459.75 -211.485)" fill="#fd8753"/>
            </g>
          </g>
        </g>
      </g>
      <g id="Group_61816" data-name="Group 61816" transform="translate(158.585 246.484)">
        <path id="Path_3025" data-name="Path 3025" d="M474.49,208.6c-.065,0-13.594-1.382-13.594-1.382a.644.644,0,1,1,.129-1.281l13.529,1.376a.645.645,0,0,1-.065,1.286Z" transform="translate(-460.315 -205.933)"/>
      </g>
      <g id="Group_61817" data-name="Group 61817" transform="translate(159.272 255.155)">
        <path id="Path_3026" data-name="Path 3026" d="M474.872,213.419c-.065,0-13.6-1.382-13.6-1.382a.645.645,0,1,1,.131-1.283l13.529,1.38a.644.644,0,0,1-.065,1.284Z" transform="translate(-460.697 -210.753)"/>
      </g>
      <g id="Group_61818" data-name="Group 61818" transform="translate(195.344 241.031)">
        <path id="Path_3027" data-name="Path 3027" d="M490.442,205.034c-.061,0-9.108-.847-9.108-.847a.64.64,0,0,1-.581-.7.632.632,0,0,1,.7-.583l9.048.844a.645.645,0,0,1-.059,1.286Z" transform="translate(-480.75 -202.901)"/>
      </g>
      <g id="Group_61819" data-name="Group 61819" transform="translate(191.267 246.394)">
        <path id="Path_3028" data-name="Path 3028" d="M487.824,207.639l-8.73-.46a.641.641,0,0,1-.61-.675.612.612,0,0,1,.676-.61l8.7.459a.643.643,0,0,1-.032,1.286Z" transform="translate(-478.483 -205.883)"/>
      </g>
      <g id="Group_61820" data-name="Group 61820" transform="translate(213.112 246.402)">
        <path id="Path_3029" data-name="Path 3029" d="M493.5,213.138a.643.643,0,0,1-.6-.419l-2.227-5.961a.645.645,0,0,1,1.209-.45l2.225,5.961a.645.645,0,0,1-.378.829A.666.666,0,0,1,493.5,213.138Z" transform="translate(-490.627 -205.887)"/>
      </g>
      <g id="Group_61821" data-name="Group 61821" transform="translate(220.743 226.412)">
        <path id="Path_3030" data-name="Path 3030" d="M495.513,217.081a.645.645,0,0,1-.462-1.092c.139-.146,14.2-14.59,34.151-21.183a.645.645,0,0,1,.4,1.225c-19.636,6.488-33.491,20.708-33.629,20.852A.641.641,0,0,1,495.513,217.081Z" transform="translate(-494.869 -194.775)" fill="#fff"/>
      </g>
      <g id="Group_61822" data-name="Group 61822" transform="translate(234.744 222.207)">
        <path id="Path_3031" data-name="Path 3031" d="M503.3,207.164a.643.643,0,0,1-.63-.781c.313-1.437,3.2-13.946,8.57-13.946.038,0,.077,0,.115,0a1.656,1.656,0,0,1,1.671.984c1.1,2.756-6.816,11.067-9.27,13.549A.647.647,0,0,1,503.3,207.164Zm7.94-13.437c-3.035,0-5.5,6.334-6.713,10.584,4.118-4.411,7.775-9.221,7.3-10.41-.054-.139-.347-.167-.514-.174Z" transform="translate(-502.653 -192.437)" fill="#fff"/>
      </g>
      <g id="Group_61823" data-name="Group 61823" transform="translate(125.796 231.729)">
        <path id="Path_3032" data-name="Path 3032" d="M455.513,206.929a.735.735,0,0,1-.11-.009c-1.236-.214-12.1-2.186-13.214-5.621a2.33,2.33,0,0,1,.743-2.439,3.577,3.577,0,0,1,2.954-1.117c4.454.335,9.919,7.845,10.151,8.163a.648.648,0,0,1-.523,1.024Zm-9.942-7.91a2.316,2.316,0,0,0-1.72.741c-.542.554-.507.917-.435,1.14.579,1.793,6.22,3.526,10.543,4.429-1.986-2.428-5.53-6.1-8.172-6.3C445.715,199.023,445.641,199.019,445.571,199.019Z" transform="translate(-442.088 -197.73)" fill="#fff"/>
      </g>
      <g id="Group_61824" data-name="Group 61824" transform="translate(148.664 280.904)">
        <path id="Path_3033" data-name="Path 3033" d="M455.444,231.394a.645.645,0,0,1-.045-1.288,24,24,0,0,0,12.392-4.887.645.645,0,1,1,.829.988,24.874,24.874,0,0,1-13.132,5.186Z" transform="translate(-454.8 -225.067)" fill="#fff"/>
      </g>
      <g id="Group_61825" data-name="Group 61825" transform="translate(220.126 281.524)">
        <path id="Path_3034" data-name="Path 3034" d="M509.855,230.7c-10.973-1.088-14.912-4.01-15.074-4.132a.645.645,0,0,1-.124-.9.652.652,0,0,1,.9-.128c.04.029,3.882,2.833,14.36,3.875a.645.645,0,0,1-.063,1.286Z" transform="translate(-494.527 -225.412)" fill="#fff"/>
      </g>
      <g id="Group_61826" data-name="Group 61826" transform="translate(171.048 188.807)">
        <path id="Path_3035" data-name="Path 3035" d="M478.046,180.54a12.959,12.959,0,0,1-10.712-5.7.645.645,0,0,1,1.108-.66c.16.268,4.01,6.5,12.43,4.771a.646.646,0,0,1,.261,1.265A15.354,15.354,0,0,1,478.046,180.54Z" transform="translate(-467.244 -173.87)" fill="#fff"/>
      </g>
      <g id="Group_61827" data-name="Group 61827" transform="translate(181.818 167.538)">
        <path id="Path_3036" data-name="Path 3036" d="M476.748,168.038a2.551,2.551,0,0,1-.773-.121,5.527,5.527,0,0,1-2.68-2.641.648.648,0,0,1,.34-.88l5.726-2.306a.656.656,0,0,1,.565.041.647.647,0,0,1,.315.471c.02.149.444,3.626-2.164,5.075A2.719,2.719,0,0,1,476.748,168.038Zm-1.937-2.725a3.431,3.431,0,0,0,1.556,1.376,1.307,1.307,0,0,0,1.083-.137,3.452,3.452,0,0,0,1.526-2.916Z" transform="translate(-473.231 -162.046)"/>
      </g>
      <g id="Group_61828" data-name="Group 61828" transform="translate(165.707 191.5)">
        <path id="Path_3037" data-name="Path 3037" d="M464.919,179.969a.645.645,0,0,1-.394-1.155l4.312-3.315a.645.645,0,0,1,.788,1.022l-4.314,3.315A.642.642,0,0,1,464.919,179.969Z" transform="translate(-464.275 -175.367)" fill="#fff"/>
      </g>
      <g id="Group_61829" data-name="Group 61829" transform="translate(175.563 193.74)">
        <path id="Path_3038" data-name="Path 3038" d="M470.4,183.239a.61.61,0,0,1-.211-.036.645.645,0,0,1-.4-.82l1.855-5.335a.645.645,0,1,1,1.218.423l-1.853,5.337A.645.645,0,0,1,470.4,183.239Z" transform="translate(-469.753 -176.612)" fill="#fff"/>
      </g>
      <g id="Group_61830" data-name="Group 61830" transform="translate(189.996 193.578)">
        <path id="Path_3039" data-name="Path 3039" d="M481.483,183.311a.645.645,0,0,1-.565-.331l-3.06-5.5a.645.645,0,0,1,1.128-.626l3.06,5.5a.646.646,0,0,1-.25.876A.635.635,0,0,1,481.483,183.311Z" transform="translate(-477.777 -176.522)" fill="#fff"/>
      </g>
      <g id="Group_61831" data-name="Group 61831" transform="translate(196.925 188.686)">
        <path id="Path_3040" data-name="Path 3040" d="M486.554,175.211l-4.3-.119a.645.645,0,0,1,.036-1.29l4.281.121a.644.644,0,0,1-.018,1.288Z" transform="translate(-481.629 -173.802)" fill="#fff"/>
      </g>
      <g id="Group_61832" data-name="Group 61832" transform="translate(159.272 282.4)">
        <path id="Path_3041" data-name="Path 3041" d="M497.3,235.095q-3.13,0-6.517-.209a78.513,78.513,0,0,1-29.749-7.776.644.644,0,1,1,.617-1.131,77.191,77.191,0,0,0,29.21,7.622c14.864.914,25.759-1.184,34.308-6.58a.645.645,0,0,1,.689,1.09C518.381,232.83,509.2,235.095,497.3,235.095Z" transform="translate(-460.697 -225.899)" fill="#fff"/>
      </g>
      <g id="Group_61833" data-name="Group 61833" transform="translate(217.149 286.988)">
        <path id="Path_3042" data-name="Path 3042" d="M496.128,236.209a.645.645,0,0,1-.6-.4l-2.61-6.47a.644.644,0,0,1,1.194-.48l2.612,6.47a.642.642,0,0,1-.358.836A.631.631,0,0,1,496.128,236.209Z" transform="translate(-492.872 -228.45)" fill="#fff"/>
      </g>
      <g id="Group_61834" data-name="Group 61834" transform="translate(204.39 289.804)">
        <path id="Path_3043" data-name="Path 3043" d="M487.947,238.446a.643.643,0,0,1-.63-.511l-1.524-7.145a.645.645,0,0,1,1.261-.268l1.524,7.145a.643.643,0,0,1-.5.765A.654.654,0,0,1,487.947,238.446Z" transform="translate(-485.779 -230.015)" fill="#fff"/>
      </g>
      <g id="Group_61835" data-name="Group 61835" transform="translate(190.573 290.225)">
        <path id="Path_3044" data-name="Path 3044" d="M478.744,239.466a.658.658,0,0,1-.644-.7l.693-7.929a.646.646,0,1,1,1.286.113l-.693,7.929A.645.645,0,0,1,478.744,239.466Z" transform="translate(-478.098 -230.249)" fill="#fff"/>
      </g>
      <g id="Group_61836" data-name="Group 61836" transform="translate(177.176 288.807)">
        <path id="Path_3045" data-name="Path 3045" d="M471.3,238.889a.618.618,0,0,1-.113-.011.642.642,0,0,1-.522-.747l1.436-8.138a.644.644,0,1,1,1.268.225l-1.435,8.138A.642.642,0,0,1,471.3,238.889Z" transform="translate(-470.65 -229.461)" fill="#fff"/>
      </g>
      <g id="Group_61837" data-name="Group 61837" transform="translate(164.256 285.521)">
        <path id="Path_3046" data-name="Path 3046" d="M464.112,237.38a.654.654,0,0,1-.182-.027.646.646,0,0,1-.437-.8l2.468-8.456a.645.645,0,1,1,1.238.362l-2.468,8.456A.647.647,0,0,1,464.112,237.38Z" transform="translate(-463.468 -227.634)" fill="#fff"/>
      </g>
    </g>
  </g>
  <rect id="Rectangle_27585" data-name="Rectangle 27585" width="375" height="386" fill="url(#linear-gradient)"/>
</svg>
