<svg id="Group_63409" data-name="Group 63409" xmlns="http://www.w3.org/2000/svg" xmlns:xlink="http://www.w3.org/1999/xlink" width="375" height="379" viewBox="0 0 375 379">
  <defs>
    <linearGradient id="linear-gradient" x1="0.5" y1="0.328" x2="0.5" y2="0.93" gradientUnits="objectBoundingBox">
      <stop offset="0" stop-color="#fff" stop-opacity="0"/>
      <stop offset="1" stop-color="#fff"/>
    </linearGradient>
  </defs>
  <g id="Group_62704" data-name="Group 62704" transform="translate(1.298 -4)">
    <g id="Group_62683" data-name="Group 62683" transform="translate(56.038 80.511)">
      <g id="Group_62598" data-name="Group 62598" transform="translate(105.888 129.51)">
        <path id="Path_3509" data-name="Path 3509" d="M223.541,159.677c-8.043,0-18.238-3.463-28.064-10.114-17.024-11.531-25.563-27.649-19.439-36.694,3.008-4.442,9.049-6.358,17.011-5.4,7.661.926,16.283,4.417,24.275,9.83s14.435,12.122,18.138,18.891c3.848,7.037,4.31,13.357,1.3,17.8C234.174,157.817,229.435,159.677,223.541,159.677ZM196.907,147.45c15.579,10.55,32.512,12.843,37.745,5.112,2.446-3.61,1.937-8.99-1.429-15.144-3.511-6.422-9.667-12.816-17.33-18.005s-15.885-8.532-23.151-9.409c-6.958-.834-12.147.684-14.592,4.3-5.235,7.731,3.18,22.6,18.757,33.151Z" transform="translate(-174.059 -107.229)" fill="#16143f"/>
      </g>
      <g id="Group_62599" data-name="Group 62599" transform="translate(143.869 155.313)">
        <path id="Path_3510" data-name="Path 3510" d="M216.133,175.035a1.275,1.275,0,0,1-1.071-1.964c13.577-21.162-19-48.9-19.335-49.179a1.275,1.275,0,1,1,1.638-1.953c1.422,1.192,34.63,29.464,19.842,52.51A1.273,1.273,0,0,1,216.133,175.035Z" transform="translate(-195.271 -121.64)" fill="#16143f"/>
      </g>
      <g id="Group_62600" data-name="Group 62600" transform="translate(176.799 73.793)">
        <path id="Path_3511" data-name="Path 3511" d="M228.517,154.776a14.479,14.479,0,0,1-9-2.8c-10.492-8.027-6.5-30.938,8.906-51.072,7.418-9.7,16.344-17.332,25.135-21.5,8.929-4.233,16.68-4.4,21.828-.458s7.019,11.463,5.268,21.187c-1.721,9.576-6.754,20.188-14.173,29.885C254.72,145.4,239.654,154.774,228.517,154.776ZM266.3,77.393a29.063,29.063,0,0,0-12.193,3.175c-8.61,4.082-17.37,11.583-24.666,21.119-14.974,19.574-19.076,41.677-9.144,49.274s30.191-2.147,45.163-21.717c7.3-9.538,12.245-19.955,13.93-29.333,1.66-9.228-.039-16.31-4.786-19.939A13.351,13.351,0,0,0,266.3,77.393Z" transform="translate(-213.663 -76.111)" fill="#16143f"/>
      </g>
      <g id="Group_62601" data-name="Group 62601" transform="translate(183.252 161.857)">
        <path id="Path_3512" data-name="Path 3512" d="M244.178,164.685c-14.145,0-25.23-5-26.737-13.022-1.923-10.215,12.4-21.513,31.93-25.185,9.391-1.771,18.583-1.545,25.883.627,7.448,2.215,12.071,6.2,13.017,11.232s-1.91,10.422-8.045,15.194c-6.012,4.677-14.5,8.225-23.885,9.991A66.014,66.014,0,0,1,244.178,164.685Zm17.493-38.107a65.466,65.466,0,0,0-12.064,1.16c-18.832,3.543-32.7,14.168-30.906,23.686s18.569,14.376,37.4,10.836c9.194-1.73,17.48-5.191,23.335-9.744,5.735-4.46,8.424-9.413,7.572-13.944s-5.158-8.166-12.122-10.238A46.74,46.74,0,0,0,261.671,126.578Z" transform="translate(-217.267 -125.296)" fill="#16143f"/>
      </g>
      <g id="Group_62602" data-name="Group 62602" transform="translate(165.567 102.905)">
        <path id="Path_3513" data-name="Path 3513" d="M209.625,208.239a.642.642,0,0,1-.625-.494c-12.369-52.366,50.578-114.569,51.215-115.193a.642.642,0,0,1,.9.919c-.632.618-63.066,62.32-50.862,113.979a.642.642,0,0,1-.476.772A.614.614,0,0,1,209.625,208.239Z" transform="translate(-207.39 -92.37)" fill="#16143f"/>
      </g>
      <g id="Group_62603" data-name="Group 62603" transform="translate(119.09 81.394)">
        <path id="Path_3514" data-name="Path 3514" d="M235.621,106.023C218.45,77.218,202.434,78.471,189.55,83.558s-7.935,14.014,1.955,39.061,26.657,47.784,39.539,42.7S249.408,129.156,235.621,106.023Z" transform="translate(-181.144 -80.075)" fill="#fff"/>
        <path id="Path_3515" data-name="Path 3515" d="M227.6,166.946c-12.557,0-27.357-20.913-36.4-43.81q-1.254-3.175-2.394-6.009c-5.767-14.419-8.943-22.361-6.587-27.828,1.114-2.582,3.461-4.507,7.386-6.057,12.557-4.954,29.224-6.852,46.857,22.734,9.491,15.923,9.663,35.011,5.622,46.864-2.338,6.858-6.072,11.6-10.512,13.353A10.719,10.719,0,0,1,227.6,166.946Zm-24.725-85.27a34.8,34.8,0,0,0-12.8,2.761c-3.588,1.416-5.71,3.123-6.68,5.37-2.145,4.978,1.146,13.208,6.6,26.845q1.136,2.841,2.4,6.012c8.863,22.444,23.19,43.018,35.092,43.022A9.758,9.758,0,0,0,231.1,165c4.086-1.611,7.554-6.079,9.769-12.573,3.944-11.574,3.773-30.222-5.509-45.793C223.732,87.128,212.6,81.676,202.871,81.676Z" transform="translate(-181.432 -80.356)" fill="#16143f"/>
      </g>
      <g id="Group_62604" data-name="Group 62604" transform="translate(167.087 177.669)">
        <path id="Path_3516" data-name="Path 3516" d="M208.88,172.227a.641.641,0,0,1-.641-.639,28.405,28.405,0,0,1,8.913-21.353c18.2-17.549,58.692-16.089,59.1-16.071a.64.64,0,0,1,.614.668.61.61,0,0,1-.666.614c-.4-.02-40.354-1.452-58.155,15.715a27.166,27.166,0,0,0-8.521,20.42.641.641,0,0,1-.637.646Z" transform="translate(-208.239 -134.127)" fill="#16143f"/>
      </g>
      <g id="Group_62605" data-name="Group 62605" transform="translate(150.731 94.15)">
        <path id="Path_3517" data-name="Path 3517" d="M215.179,194.714a.6.6,0,0,1-.136-.014.642.642,0,0,1-.491-.763c12.073-55.885-15.09-105.01-15.366-105.5a.641.641,0,1,1,1.117-.63c.279.494,27.681,50.026,15.5,106.4A.642.642,0,0,1,215.179,194.714Z" transform="translate(-199.104 -87.48)" fill="#16143f"/>
      </g>
      <g id="Group_62607" data-name="Group 62607" transform="translate(5.895 144.605)">
        <g id="Group_62606" data-name="Group 62606">
          <path id="Path_3518" data-name="Path 3518" d="M192.814,115.66h-74.6v1.375h73.906v9.916H118.212v1.375h74.6a.688.688,0,0,0,.677-.679V116.357A.692.692,0,0,0,192.814,115.66Z" transform="translate(-118.212 -115.66)" fill="#16143f"/>
        </g>
      </g>
      <g id="Group_62608" data-name="Group 62608" transform="translate(121.865 75.55)">
        <path id="Path_3519" data-name="Path 3519" d="M199.61,77.092s4.111,3.087,5.905,13.427c.883,5.083-.994,15.341-.994,15.341s13.273,21.061,10.915,32.778-25.2,4.073-25.2,4.073l-7.251-18.651,7.264-16.965Z" transform="translate(-182.982 -77.092)" fill="#764ee8"/>
      </g>
      <g id="Group_62609" data-name="Group 62609" transform="translate(146.817 126.67)">
        <path id="Path_3520" data-name="Path 3520" d="M220.592,141.795l13.216-36.152,24.29,14.392s5.812,69.909-21.045,77.58C212.245,204.7,196.918,180,196.918,180Z" transform="translate(-196.918 -105.643)" fill="#fd8753"/>
      </g>
      <g id="Group_62610" data-name="Group 62610" transform="translate(61.484 81.55)">
        <path id="Path_3521" data-name="Path 3521" d="M188.05,82.271s-6.938-1.386-14.353,4.952-6.267,16.607-6.267,16.607a26.8,26.8,0,0,0-16.979,16.736c-4.591,13.407,5.55,19.747,5.55,19.747l36.41-1.6,12.354-44.3L195.62,80.443Z" transform="translate(-149.259 -80.443)" fill="#764ee8"/>
      </g>
      <g id="Group_62611" data-name="Group 62611" transform="translate(47.119 115.86)">
        <path id="Path_3522" data-name="Path 3522" d="M141.236,152.37s12.911-50.023,39.077-52.352,42.853,5.631,56.03,13.828c12.737,7.923,28.265,32.721,28.265,32.721L246.26,193.245l-13.6-4.795-2.627,18.512-74.533-9.5-3.434-40.182Z" transform="translate(-141.236 -99.606)" fill="#ffb700"/>
      </g>
      <g id="Group_62612" data-name="Group 62612" transform="translate(100.173 114.037)">
        <path id="Path_3523" data-name="Path 3523" d="M179.776,98.612s-5.146-.4-7.321,2.03c-2.439,2.722-3.221,13.64,6.311,21.459a59.409,59.409,0,0,0,13.185,8.313s8.1-8.2,10.251-13.609-4.89-13.278-4.89-13.278Z" transform="translate(-170.867 -98.588)" fill="#19dff9"/>
      </g>
      <g id="Group_62616" data-name="Group 62616" transform="translate(107.143 103.547)">
        <g id="Group_62615" data-name="Group 62615">
          <g id="Group_62614" data-name="Group 62614">
            <g id="Group_62613" data-name="Group 62613">
              <path id="Path_3524" data-name="Path 3524" d="M177.351,92.729l-2.591,16.088s2.156,5.092,11.445,7.373c6.92,1.7,9.638.51,9.638.51l.335-8.306.315-8.1L180.1,93.818Z" transform="translate(-174.76 -92.729)" fill="#fd8753"/>
            </g>
          </g>
        </g>
      </g>
      <g id="Group_62620" data-name="Group 62620" transform="translate(112.478 104.636)">
        <g id="Group_62619" data-name="Group 62619">
          <g id="Group_62618" data-name="Group 62618">
            <g id="Group_62617" data-name="Group 62617">
              <path id="Path_3525" data-name="Path 3525" d="M177.746,93.337a5.374,5.374,0,0,0,.217,1.628c2.306,8.618,11.869,11.935,15.86,12.949l.315-8.1Z" transform="translate(-177.74 -93.337)"/>
            </g>
          </g>
        </g>
      </g>
      <g id="Group_62624" data-name="Group 62624" transform="translate(99.71 67.432)">
        <g id="Group_62623" data-name="Group 62623">
          <g id="Group_62622" data-name="Group 62622">
            <g id="Group_62621" data-name="Group 62621">
              <path id="Path_3526" data-name="Path 3526" d="M209.268,80.144s5.2,21.531.063,32.2-15.051,7.094-20.788,3.841a20.572,20.572,0,0,1-7.914-7.511,8.761,8.761,0,0,1-8.943-5.067c-2.883-5.993.553-11.681,4.064-12.5s6.978,2.222,6.978,2.222l-2.014-6.345S198.738,59.731,209.268,80.144Z" transform="translate(-170.609 -72.558)" fill="#fd8753"/>
            </g>
          </g>
        </g>
      </g>
      <g id="Group_62625" data-name="Group 62625" transform="translate(132.215 90.415)">
        <path id="Path_3527" data-name="Path 3527" d="M189.617,95.234a.634.634,0,0,1-.3-.073.642.642,0,0,1-.27-.867c1.816-3.47-.208-7.944-.227-7.989a.641.641,0,1,1,1.164-.537c.095.206,2.3,5.1.2,9.121A.636.636,0,0,1,189.617,95.234Z" transform="translate(-188.763 -85.394)"/>
      </g>
      <g id="Group_62626" data-name="Group 62626" transform="translate(104.368 89.387)">
        <path id="Path_3528" data-name="Path 3528" d="M178.218,92.847a.639.639,0,0,1-.539-.292l-4.367-6.745a.642.642,0,0,1,1.078-.7l4.365,6.743a.639.639,0,0,1-.537.99Z" transform="translate(-173.21 -84.82)"/>
      </g>
      <g id="Group_62627" data-name="Group 62627" transform="translate(103.277 93.532)">
        <path id="Path_3529" data-name="Path 3529" d="M177.1,88.544c-.02,0-3.875-.122-3.875-.122a.642.642,0,0,1-.621-.662.6.6,0,0,1,.662-.62l3.853.122a.641.641,0,0,1-.02,1.282Z" transform="translate(-172.601 -87.135)"/>
      </g>
      <g id="Group_62628" data-name="Group 62628" transform="translate(123.63 81.132)">
        <path id="Path_3530" data-name="Path 3530" d="M189.5,82.255a.641.641,0,0,1-.313-.082c-.023-.014-2.417-1.341-4.245-.242a.642.642,0,0,1-.661-1.1c2.476-1.484,5.414.156,5.54.227a.641.641,0,0,1-.32,1.2Z" transform="translate(-183.968 -80.21)"/>
      </g>
      <g id="Group_62629" data-name="Group 62629" transform="translate(135.63 82.13)">
        <path id="Path_3531" data-name="Path 3531" d="M194.937,83.476a.644.644,0,0,1-.573-.351,2.219,2.219,0,0,0-2.852-.9.642.642,0,0,1-.4-1.219,3.507,3.507,0,0,1,4.4,1.542.641.641,0,0,1-.571.931Z" transform="translate(-190.67 -80.767)"/>
      </g>
      <g id="Group_62630" data-name="Group 62630" transform="translate(124.754 84.234)">
        <path id="Path_3532" data-name="Path 3532" d="M185.237,88.853a.647.647,0,0,1-.641-.677l.21-3.807a.644.644,0,0,1,.2-.426l1.891-1.821a.642.642,0,0,1,.89.926l-1.708,1.645-.2,3.552A.642.642,0,0,1,185.237,88.853Z" transform="translate(-184.595 -81.943)"/>
      </g>
      <g id="Group_62631" data-name="Group 62631" transform="translate(135.957 85.346)">
        <path id="Path_3533" data-name="Path 3533" d="M191.494,89.506a.646.646,0,0,1-.641-.664l.138-3.81a.636.636,0,0,1,.163-.406l1.667-1.85a.641.641,0,1,1,.953.858l-1.509,1.678-.129,3.577A.64.64,0,0,1,191.494,89.506Z" transform="translate(-190.853 -82.563)"/>
      </g>
      <g id="Group_62632" data-name="Group 62632" transform="translate(98.915 62.058)">
        <path id="Path_3534" data-name="Path 3534" d="M182.912,98.855s6.476-2.347,9.547-6.623a16.491,16.491,0,0,0,3.065-8.761,14.034,14.034,0,0,0,8.854,3.2,8.989,8.989,0,0,0,8.992-9.259c-.184-2.161-4.109-1.973-4.109-1.973a12.346,12.346,0,0,0-10.086-5.873c-6.935-.168-9.287,3.556-9.287,3.556s-5.443-.942-9.993,1.377-5.529,8.474-5.529,8.474-3.491,1.194-4.1,4.428,1.64,9.891,1.64,9.891S177.675,91.215,182.912,98.855Z" transform="translate(-170.164 -69.557)" fill="#764ee8"/>
      </g>
      <g id="Group_62633" data-name="Group 62633" transform="translate(137.207 147.481)">
        <path id="Path_3535" data-name="Path 3535" d="M192.192,177.383a.614.614,0,0,1-.1-.009.638.638,0,0,1-.535-.731l2.641-17.079a.647.647,0,0,1,.064-.2,86.141,86.141,0,0,0,6.14-17.371c2.5-10.242-3.207-23.7-3.264-23.833a.642.642,0,0,1,1.178-.508c.243.566,5.941,13.984,3.334,24.646a88.559,88.559,0,0,1-6.2,17.563l-2.625,16.977A.643.643,0,0,1,192.192,177.383Z" transform="translate(-191.551 -117.266)" fill="#e2209e"/>
      </g>
      <g id="Group_62634" data-name="Group 62634" transform="translate(93.847 171.827)">
        <path id="Path_3536" data-name="Path 3536" d="M167.975,146.929a.642.642,0,0,1-.639-.695c.449-5.447,1.513-14.682,3.6-15.321a1.227,1.227,0,0,1,1.368.534c2.587,3.221-3.108,13.935-3.765,15.146A.642.642,0,0,1,167.975,146.929Zm3.212-14.795c-.68.448-1.624,5.423-2.231,10.748,1.9-4.14,3.567-9.115,2.349-10.632A.484.484,0,0,0,171.187,132.134Z" transform="translate(-167.334 -130.863)" fill="#e2209e"/>
      </g>
      <g id="Group_62635" data-name="Group 62635" transform="translate(100.368 115.447)">
        <path id="Path_3537" data-name="Path 3537" d="M177.86,99.375s5.108,10.021,14.478,10.82c6.668.569,6.974-4.555,6.974-4.555l1.59,9.164-9.459,7.017-13.69-8.143-6.777-10.44Z" transform="translate(-170.976 -99.375)" fill="#19dff9"/>
      </g>
      <g id="Group_62636" data-name="Group 62636" transform="translate(106.389 137.694)">
        <path id="Path_3538" data-name="Path 3538" d="M183.848,112.724A38.274,38.274,0,0,0,175.2,129.2c-2.65,10.471,1.672,23.368,1.672,23.368s11.627-9.687,14.247-17.951-.052-20.988-.052-20.988,2.906,10.893,3.047,17.305.432,14.671.432,14.671,7.234-7.028,8.336-16.53S194.8,111.8,194.8,111.8Z" transform="translate(-174.339 -111.8)" fill="#19dff9"/>
      </g>
      <g id="Group_62637" data-name="Group 62637" transform="translate(112.835 129.473)">
        <path id="Path_3539" data-name="Path 3539" d="M184.668,119.6a12.26,12.26,0,0,1-4.616-.664c-2.893-1.346-2.294-8.5-1.257-11.289a.642.642,0,1,1,1.2.448c-1.069,2.874-1.178,8.852.594,9.676,1.565.727,5.253.577,7.216.4-.453-2.1-1.456-7.8.414-10.021a2.615,2.615,0,0,1,2.3-.926,2.221,2.221,0,0,1,1.961,1.189c1.432,2.8-2.845,9.864-3.337,10.661a.648.648,0,0,1-.347.272.689.689,0,0,1-.124.027A37.615,37.615,0,0,1,184.668,119.6Zm5.6-11.1a1.306,1.306,0,0,0-1.067.478c-1.2,1.42-.795,5.4-.324,8,1.549-2.811,3.16-6.6,2.457-7.975a.965.965,0,0,0-.911-.492C190.372,108.495,190.32,108.491,190.27,108.491Z" transform="translate(-177.939 -107.209)" fill="#fff"/>
      </g>
      <g id="Group_62638" data-name="Group 62638" transform="translate(113.004 140.95)">
        <path id="Path_3540" data-name="Path 3540" d="M180.2,128.822a2.314,2.314,0,0,1-.365-.029,1.96,1.96,0,0,1-1.511-1.1c-1.538-3.139,3.6-12.664,4.193-13.738a.641.641,0,0,1,1.2.265c.079,1.171.7,11.513-2.023,14.005A2.18,2.18,0,0,1,180.2,128.822ZM182.53,116.7c-1.891,3.841-3.841,8.832-3.058,10.43a.681.681,0,0,0,.56.4.878.878,0,0,0,.793-.252C182.357,125.871,182.6,120.393,182.53,116.7Z" transform="translate(-178.033 -113.619)" fill="#fff"/>
      </g>
      <g id="Group_62644" data-name="Group 62644" transform="translate(46.918 171.081)">
        <g id="Group_62639" data-name="Group 62639" transform="translate(71.929 32.696)">
          <path id="Path_3541" data-name="Path 3541" d="M189.476,148.708a179.017,179.017,0,0,1,17.867,4.324c6.711,2.22,17.149,4.87,21.622,3.842s4.883.849,3.636,3.4-6.428,3.774-6.428,3.774,4.711,21.672,2.555,23.368-8.02-5.28-8.02-5.28a5.066,5.066,0,0,1-2.858,1.674,9.164,9.164,0,0,1-3.946-.877,4.186,4.186,0,0,1-3.54,2.408,6.171,6.171,0,0,1-4.68-1.15s-1.746,3.551-3.59,2.7-10.174-3.624-9.629-6.125S200,178.987,200,178.987l1.065-4.247s-7.409,5.311-14.066,1.33-5.649-13.395-5.649-13.395Z" transform="translate(-181.297 -148.708)" fill="#fd8753"/>
        </g>
        <g id="Group_62640" data-name="Group 62640" transform="translate(109.817 47.031)">
          <path id="Path_3542" data-name="Path 3542" d="M203.982,176.452a.641.641,0,0,1-.48-1.067c5.146-5.808-.91-17.615-.972-17.733a.642.642,0,1,1,1.139-.593c.269.516,6.525,12.707.793,19.176A.639.639,0,0,1,203.982,176.452Z" transform="translate(-202.458 -156.714)"/>
        </g>
        <g id="Group_62641" data-name="Group 62641" transform="translate(103.896 56.098)">
          <path id="Path_3543" data-name="Path 3543" d="M199.792,173.248a.642.642,0,0,1-.489-1.058c3.1-3.658,1.04-9.493,1.021-9.552a.641.641,0,1,1,1.205-.437c.1.269,2.331,6.6-1.246,10.82A.642.642,0,0,1,199.792,173.248Z" transform="translate(-199.151 -161.778)"/>
        </g>
        <g id="Group_62642" data-name="Group 62642" transform="translate(95.676 58.84)">
          <path id="Path_3544" data-name="Path 3544" d="M195.2,173.294a.641.641,0,0,1-.385-1.155c3.268-2.457,3.008-8.095,3-8.15a.642.642,0,0,1,1.282-.072c.013.26.3,6.376-3.517,9.25A.64.64,0,0,1,195.2,173.294Z" transform="translate(-194.56 -163.309)"/>
        </g>
        <g id="Group_62643" data-name="Group 62643">
          <path id="Path_3545" data-name="Path 3545" d="M146.748,130.447s-8.523,21.362-4.585,33.822c5.615,17.763,75.336,19.559,75.336,19.559l7.611-18.58-36.664-17.88.247-.752S174.139,140.271,146.748,130.447Z" transform="translate(-141.124 -130.447)" fill="#fd8753"/>
        </g>
      </g>
      <g id="Group_62645" data-name="Group 62645" transform="translate(122.833 99.232)">
        <path id="Path_3546" data-name="Path 3546" d="M187.477,96.709a4.146,4.146,0,0,1-2.007-.5c-2.548-1.38-1.875-5.2-1.844-5.363a.642.642,0,0,1,1-.41l6.039,4.208a.64.64,0,0,1,0,1.051A6.1,6.1,0,0,1,187.477,96.709Zm-2.67-4.584c0,.978.2,2.371,1.275,2.952a3.5,3.5,0,0,0,2.978.009Z" transform="translate(-183.523 -90.319)"/>
      </g>
      <g id="Group_62646" data-name="Group 62646" transform="translate(5.97 97.387)">
        <path id="Path_3547" data-name="Path 3547" d="M131.309,137.278a.643.643,0,0,1-.62-.478L118.276,90.1a.641.641,0,1,1,1.239-.328l12.413,46.7a.641.641,0,0,1-.453.784A.675.675,0,0,1,131.309,137.278Z" transform="translate(-118.254 -89.289)" fill="#16143f"/>
      </g>
      <g id="Group_62647" data-name="Group 62647" transform="translate(6.46 97.39)">
        <path id="Path_3548" data-name="Path 3548" d="M140.625,137.843a.643.643,0,0,1-.62-.469L127.033,90.689,119.309,92.4a.641.641,0,1,1-.279-1.252l8.319-1.844a.641.641,0,0,1,.757.455l13.137,47.271a.641.641,0,0,1-.448.79A.627.627,0,0,1,140.625,137.843Z" transform="translate(-118.528 -89.29)" fill="#16143f"/>
      </g>
      <g id="Group_62648" data-name="Group 62648" transform="translate(16.614 101.784)">
        <path id="Path_3549" data-name="Path 3549" d="M145.153,135.337a.643.643,0,0,1-.621-.483l-10.689-41.7-8.856,2.068a.642.642,0,1,1-.292-1.25l9.468-2.211a.644.644,0,0,1,.766.467l10.845,42.309a.642.642,0,0,1-.462.781A.694.694,0,0,1,145.153,135.337Z" transform="translate(-124.199 -91.744)" fill="#16143f"/>
      </g>
      <g id="Group_62649" data-name="Group 62649" transform="translate(49.297 161.412)">
        <path id="Path_3550" data-name="Path 3550" d="M188.514,144.135a.638.638,0,0,1-.235-.043L142.86,126.286a.642.642,0,1,1,.469-1.194L188.748,142.9a.641.641,0,0,1-.235,1.237Z" transform="translate(-142.452 -125.047)" fill="#e2209e"/>
      </g>
      <g id="Group_62650" data-name="Group 62650" transform="translate(146.699 155.946)">
        <path id="Path_3551" data-name="Path 3551" d="M197.493,173.646a.651.651,0,0,1-.224-.041.641.641,0,0,1-.376-.825l18.847-50.368a.641.641,0,0,1,1.2.448l-18.847,50.37A.643.643,0,0,1,197.493,173.646Z" transform="translate(-196.852 -121.994)" fill="#e2209e"/>
      </g>
      <g id="Group_62651" data-name="Group 62651" transform="translate(104.592 99.873)">
        <path id="Path_3552" data-name="Path 3552" d="M178.438,93.23a2.551,2.551,0,1,1-2.551-2.553A2.551,2.551,0,0,1,178.438,93.23Z" transform="translate(-173.335 -90.677)" fill="#e2209e"/>
      </g>
      <g id="Group_62654" data-name="Group 62654" transform="translate(199.845 73.757)">
        <g id="Group_62653" data-name="Group 62653">
          <g id="Group_62652" data-name="Group 62652">
            <path id="Path_3553" data-name="Path 3553" d="M234.242,123.707a13.132,13.132,0,0,0,17.386-6.532l13.719-30.231L241.43,76.091l-13.719,30.232A13.131,13.131,0,0,0,234.242,123.707Z" transform="translate(-226.535 -76.091)" fill="#ddd2ff"/>
          </g>
        </g>
      </g>
      <g id="Group_62657" data-name="Group 62657" transform="translate(203.767 93.904)">
        <g id="Group_62656" data-name="Group 62656">
          <g id="Group_62655" data-name="Group 62655">
            <path id="Path_3554" data-name="Path 3554" d="M234.684,110.025a10.153,10.153,0,0,0,13.439-5.049l4.2-9.244L233.83,87.343l-4.2,9.242A10.153,10.153,0,0,0,234.684,110.025Z" transform="translate(-228.725 -87.343)" fill="#ffb700"/>
          </g>
        </g>
      </g>
      <g id="Group_62660" data-name="Group 62660" transform="translate(214.721 73.549)">
        <g id="Group_62659" data-name="Group 62659">
          <g id="Group_62658" data-name="Group 62658">
            <path id="Path_3555" data-name="Path 3555" d="M234.863,76.183c-.38.838,4.666,3.946,11.271,6.942s12.265,4.748,12.644,3.912-4.666-3.946-11.269-6.943S235.242,75.347,234.863,76.183Z" transform="translate(-234.843 -75.974)" fill="#fff"/>
          </g>
        </g>
      </g>
      <g id="Group_62663" data-name="Group 62663" transform="translate(208.846 93.637)">
        <g id="Group_62662" data-name="Group 62662">
          <g id="Group_62661" data-name="Group 62661">
            <path id="Path_3556" data-name="Path 3556" d="M231.587,87.461c-.38.836,3.45,3.393,8.557,5.71s9.55,3.517,9.932,2.679-3.452-3.393-8.557-5.71S231.967,86.623,231.587,87.461Z" transform="translate(-231.562 -87.194)" fill="#fff5d7"/>
          </g>
        </g>
      </g>
      <g id="Group_62664" data-name="Group 62664" transform="translate(183.51 101.295)">
        <path id="Path_3557" data-name="Path 3557" d="M235.3,107.788s2.813-13.328-.535-16.172c-2.152-1.826-15.079,14.007-17.158,25.23-1.884,10.161,10.4,25.185,10.4,25.185s24.805-7.583,27-14.82-6.487-10.8-6.487-10.8Z" transform="translate(-217.411 -91.471)" fill="#fd8753"/>
      </g>
      <g id="Group_62665" data-name="Group 62665" transform="translate(191.015 124.183)">
        <path id="Path_3558" data-name="Path 3558" d="M222.285,116.718a.683.683,0,0,1-.453-1.192c.063-.056,6.274-5.647,6.14-10.571a.682.682,0,1,1,1.364-.036c.154,5.559-6.322,11.38-6.6,11.627A.687.687,0,0,1,222.285,116.718Z" transform="translate(-221.603 -104.254)"/>
      </g>
      <g id="Group_62666" data-name="Group 62666" transform="translate(208.277 138.197)">
        <path id="Path_3559" data-name="Path 3559" d="M246.721,121.562s10.24,1.977,8.636-2.825-16.317-6.655-16.317-6.655l-7.8,5.987Z" transform="translate(-231.244 -112.081)" fill="#fd8753"/>
      </g>
      <g id="Group_62669" data-name="Group 62669" transform="translate(184.369 138.311)">
        <g id="Group_62668" data-name="Group 62668">
          <g id="Group_62667" data-name="Group 62667">
            <path id="Path_3560" data-name="Path 3560" d="M217.911,112.351c-.389.856,5.008,4.141,12.054,7.339s13.072,5.094,13.461,4.238-5.008-4.141-12.054-7.339S218.3,111.493,217.911,112.351Z" transform="translate(-217.891 -112.145)" fill="#ddd2ff"/>
          </g>
        </g>
      </g>
      <g id="Group_62672" data-name="Group 62672" transform="translate(195.789 116.844)">
        <g id="Group_62671" data-name="Group 62671">
          <g id="Group_62670" data-name="Group 62670">
            <rect id="Rectangle_767" data-name="Rectangle 767" width="2.98" height="29.481" transform="translate(2.714 28.077) rotate(-155.591)" fill="#ddd2ff"/>
          </g>
        </g>
      </g>
      <g id="Group_62673" data-name="Group 62673" transform="translate(198.346 119.213)">
        <path id="Path_3561" data-name="Path 3561" d="M243.967,110.009a4.932,4.932,0,0,0,3.078-1.991c.972-1.325,1.429-3.207-1.434-4.97-5.155-3.173-21.35-1.407-19.81,4.14C227.075,111.782,240.377,110.641,243.967,110.009Z" transform="translate(-225.698 -101.478)" fill="#fd8753"/>
      </g>
      <g id="Group_62674" data-name="Group 62674" transform="translate(198.711 125.949)">
        <path id="Path_3562" data-name="Path 3562" d="M241.268,113.942a4.93,4.93,0,0,0,3.166-1.848c1.033-1.278,1.576-3.139-1.2-5.031-5-3.405-18.526-1.955-17.244,3.658C227.05,115.367,237.653,114.409,241.268,113.942Z" transform="translate(-225.901 -105.24)" fill="#fd8753"/>
      </g>
      <g id="Group_62675" data-name="Group 62675" transform="translate(197.232 118.56)">
        <path id="Path_3563" data-name="Path 3563" d="M239.076,118.516c-3.4,0-12.879-.349-13.923-4.213a2.3,2.3,0,0,1,.269-1.8,6.865,6.865,0,0,1,3.144-2.313,3.834,3.834,0,0,1-2.935-2.539,2.4,2.4,0,0,1,.381-1.975c1.978-2.954,9.685-4.231,12-4.551a.682.682,0,0,1,.186,1.352c-5.538.768-9.98,2.36-11.053,3.959a1.018,1.018,0,0,0-.193.874c.517,2.011,4.614,1.882,4.659,1.882a.643.643,0,0,1,.705.587.679.679,0,0,1-.516.757c-1.176.285-4.4,1.314-5.2,2.664a.925.925,0,0,0-.125.75c.7,2.577,8.732,3.32,13.643,3.192a.682.682,0,1,1,.036,1.364C239.966,118.509,239.59,118.516,239.076,118.516Z" transform="translate(-225.075 -101.114)"/>
      </g>
      <g id="Group_62676" data-name="Group 62676" transform="translate(203.116 126.629)">
        <path id="Path_3564" data-name="Path 3564" d="M241.286,107.446l-12.267-.457a.682.682,0,0,1-.657-.707.659.659,0,0,1,.707-.657l12.242.455a.683.683,0,0,1-.025,1.366Z" transform="translate(-228.362 -105.62)"/>
      </g>
    </g>
    <g id="Group_62692" data-name="Group 62692" transform="translate(74.626 61)">
      <g id="Group_62690" data-name="Group 62690" transform="translate(49.253 52.211)">
        <path id="Path_3572" data-name="Path 3572" d="M170.57,53.16l12.915,24.172L152.809,57.017Z" transform="translate(-152.809 -53.16)" fill="#ffb700"/>
      </g>
      <g id="Group_62691" data-name="Group 62691" transform="translate(0 0)">
        <ellipse id="Ellipse_90" data-name="Ellipse 90" cx="49.253" cy="33.055" rx="49.253" ry="33.055" fill="#ffb700"/>
      </g>
    </g>
  </g>
  <rect id="Rectangle_27584" data-name="Rectangle 27584" width="375" height="379" fill="url(#linear-gradient)"/>
</svg>
