<?xml version="1.0" encoding="UTF-8"?>
<svg width="35px" height="35px" viewBox="0 0 35 35" version="1.1" xmlns="http://www.w3.org/2000/svg" xmlns:xlink="http://www.w3.org/1999/xlink">
    <title>Anonymous requests@1.5x</title>
    <g id="Page-1" stroke="none" stroke-width="1" fill="none" fill-rule="evenodd">
        <g id="Anonymous-requests" fill-rule="nonzero">
            <circle id="_201685181" fill="#E4E6E9" cx="17.5" cy="17.5" r="17.5"></circle>
            <path d="M17.5,8.256 C17.294965,8.24762896 17.1002132,8.16396048 16.953,8.021 C16.6360999,7.75568235 16.2308005,7.61963031 15.818,7.64 C14.753,7.64 13.997,9.323 13.506,11.083 C11.853,11.419 10.774,11.962 10.774,12.57 C10.774,13.121 11.65,13.614 13.037,13.953 C13.023,14.107 13.016,14.261 13.016,14.419 C13.0145925,15.0497515 13.1249654,15.6757624 13.342,16.268 L11.243,16.268 C10.9712386,16.281485 10.761548,16.5121893 10.774,16.784 C10.7732932,16.8499732 10.785172,16.9154761 10.809,16.977 L12.168,20.709 C10.5495573,22.0775722 9.62717622,24.0976416 9.653,26.217 C9.6280413,26.8187367 10.0916145,27.3286672 10.693,27.361 L24.306,27.361 C24.9073855,27.3286672 25.3709587,26.8187367 25.346,26.217 C25.3704574,24.098578 24.4496053,22.0794486 22.834,20.709 L24.19,16.977 C24.2121746,16.9150221 24.2239992,16.8498177 24.225,16.784 C24.237452,16.5121893 24.0277614,16.281485 23.756,16.268 L21.653,16.268 C21.8700346,15.6757624 21.9804075,15.0497515 21.979,14.419 C21.979,14.261 21.972,14.107 21.958,13.953 C23.345,13.614 24.221,13.121 24.221,12.57 C24.221,11.961 23.146,11.418 21.489,11.083 C21.003,9.323 20.253,7.64 19.181,7.64 C18.7671819,7.6188641 18.360673,7.75496241 18.043,8.021 C17.8963883,8.16244205 17.7034687,8.24593398 17.5,8.256 Z M19.462,16.268 L19.027,16.268 C18.4258574,16.250605 17.9076328,15.8401744 17.753,15.259 C17.7251608,15.141229 17.6200167,15.0580417 17.499,15.0580417 C17.3779833,15.0580417 17.2728392,15.141229 17.245,15.259 C17.0900362,15.8378811 16.5749118,16.2474638 15.976,16.268 L15.538,16.268 C14.7268337,16.2270136 14.1011975,15.5383669 14.138,14.727 L14.138,14.173 C15.2508718,14.3426568 16.3752827,14.4252406 17.501,14.42 C18.6267173,14.4252406 19.7511282,14.3426568 20.864,14.173 L20.864,14.728 C20.9002135,15.5397272 20.2735529,16.2280706 19.462,16.268 Z M16.379,19.968 L16.939,21.201 L15.818,26.131 L14.137,18.731 L16.379,19.968 Z M20.863,18.735 L19.182,26.135 L18.061,21.205 L18.621,19.972 L20.863,18.735 Z" id="user-secret-solid" fill="#5F6C7B"></path>
        </g>
    </g>
</svg>