<svg id="Group_63417" data-name="Group 63417" xmlns="http://www.w3.org/2000/svg" xmlns:xlink="http://www.w3.org/1999/xlink" width="375" height="386" viewBox="0 0 375 386">
  <defs>
    <linearGradient id="linear-gradient" x1="0.5" y1="0.343" x2="0.5" y2="0.953" gradientUnits="objectBoundingBox">
      <stop offset="0" stop-color="#fff" stop-opacity="0"/>
      <stop offset="1" stop-color="#fff"/>
    </linearGradient>
  </defs>
  <g id="Group_62702" data-name="Group 62702">
    <g id="Group_62700" data-name="Group 62700" transform="translate(-104.755 -159.195)">
      <g id="Group_62064" data-name="Group 62064" transform="translate(355.185 279.941)">
        <path id="Path_3202" data-name="Path 3202" d="M314.007,332.22H247.855a.767.767,0,0,1-.759-.861l8.455-66.154a.763.763,0,0,1,.757-.667h49.244a.764.764,0,0,1,.759.667l8.455,66.154a.767.767,0,0,1-.759.861Zm-65.285-1.528H313.14l-8.259-64.626h-47.9Z" transform="translate(-247.09 -264.538)" fill="#16143f"/>
      </g>
      <g id="Group_62065" data-name="Group 62065" transform="translate(303.406 309.54)">
        <path id="Path_3203" data-name="Path 3203" d="M234.8,283.583s22.041-13.745,37.736,3.64c15.636,17.324-1.62,35.716-1.62,35.716s27.64,9.9,26.911,31.383-24.364,21.853-24.364,21.853L222.8,358.354l5.2-63.579Z" transform="translate(-222.797 -278.425)" fill="#764ee8"/>
      </g>
      <g id="Group_62067" data-name="Group 62067" transform="translate(161.643 372.96)">
        <g id="Group_62066" data-name="Group 62066">
          <path id="Path_3204" data-name="Path 3204" d="M304.854,308.18H157.048a.758.758,0,0,0-.763.763V419.068h1.526V309.708h146.28v109.36h1.526V308.943A.745.745,0,0,0,304.854,308.18Z" transform="translate(-156.285 -308.18)" fill="#16143f"/>
        </g>
      </g>
      <g id="Group_62068" data-name="Group 62068" transform="translate(161.647 412.693)">
        <path id="Path_3205" data-name="Path 3205" d="M305.563,328.617,157.05,328.35a.764.764,0,0,1,0-1.528l148.511.266a.764.764,0,0,1,0,1.528Z" transform="translate(-156.287 -326.822)" fill="#16143f"/>
      </g>
      <g id="Group_62069" data-name="Group 62069" transform="translate(161.647 452.005)">
        <path id="Path_3206" data-name="Path 3206" d="M305.563,347.058l-148.513-.266a.763.763,0,1,1,0-1.526l148.511.266a.763.763,0,1,1,0,1.526Z" transform="translate(-156.287 -345.266)" fill="#16143f"/>
      </g>
      <g id="Group_62070" data-name="Group 62070" transform="translate(218.266 380.172)">
        <path id="Path_3207" data-name="Path 3207" d="M208.828,313.09H183.616a.763.763,0,1,1,0-1.526h25.212a.763.763,0,1,1,0,1.526Z" transform="translate(-182.851 -311.564)" fill="#16143f"/>
      </g>
      <g id="Group_62071" data-name="Group 62071" transform="translate(218.266 418.889)">
        <path id="Path_3208" data-name="Path 3208" d="M208.828,331.257H183.616a.764.764,0,1,1,0-1.528h25.212a.764.764,0,1,1,0,1.528Z" transform="translate(-182.851 -329.729)" fill="#16143f"/>
      </g>
      <g id="Group_62072" data-name="Group 62072" transform="translate(209.657 374.855)">
        <path id="Path_3209" data-name="Path 3209" d="M250.44,309.069s-77.018,34.077-71.327,87.56c4.576,43,66.792,9.248,66.792,9.248Z" transform="translate(-178.812 -309.069)" fill="#e2209e"/>
      </g>
      <g id="Group_62073" data-name="Group 62073" transform="translate(254.076 372.04)">
        <path id="Path_3210" data-name="Path 3210" d="M290.191,310.564l-9.7,108.988H204.976l-5.324-28.562,32.94-81.239,26.234-2Z" transform="translate(-199.652 -307.748)" fill="#e2209e"/>
      </g>
      <g id="Group_62074" data-name="Group 62074" transform="translate(276.895 305.069)">
        <path id="Path_3211" data-name="Path 3211" d="M214.288,313.8a23.63,23.63,0,0,1-3.319-18.547c1.669-7.458,5.026-9.7,5.026-9.7s-4.267-10.578,10.248-9.076,22.627,9.483,22.627,9.483A13.4,13.4,0,0,1,261.3,291.15c5.991,7.409-2.865,32.335-2.865,32.335Z" transform="translate(-210.359 -276.327)" fill="#764ee8"/>
      </g>
      <g id="Group_62078" data-name="Group 62078" transform="translate(287.016 357.094)">
        <g id="Group_62077" data-name="Group 62077">
          <g id="Group_62076" data-name="Group 62076">
            <g id="Group_62075" data-name="Group 62075">
              <path id="Path_3212" data-name="Path 3212" d="M241.735,300.736l-1.588,18.524s-3.8,5.041-14.709,4.992c-8.129-.034-10.331-4.4-10.331-4.4l3.344-16.043,19.937-2.628Z" transform="translate(-215.107 -300.736)" fill="#fd8753"/>
            </g>
          </g>
        </g>
      </g>
      <g id="Group_62082" data-name="Group 62082" transform="translate(288.465 355.962)">
        <g id="Group_62081" data-name="Group 62081">
          <g id="Group_62080" data-name="Group 62080">
            <g id="Group_62079" data-name="Group 62079">
              <path id="Path_3213" data-name="Path 3213" d="M241.033,300.2a6.138,6.138,0,0,1-.693,1.741c-4.938,8.9-19.854,11.5-24.554,11.518l1.895-9.054Z" transform="translate(-215.787 -300.205)"/>
            </g>
          </g>
        </g>
      </g>
      <g id="Group_62086" data-name="Group 62086" transform="translate(280.451 311.603)">
        <g id="Group_62085" data-name="Group 62085">
          <g id="Group_62084" data-name="Group 62084">
            <g id="Group_62083" data-name="Group 62083">
              <path id="Path_3214" data-name="Path 3214" d="M221.423,285.378S209.711,307.77,212.439,321s14.694,12.019,21.945,10a23.475,23.475,0,0,0,10.838-6.121,9.995,9.995,0,0,0,11.3-3.131c4.851-5.836,2.624-13.085-1.036-14.965s-8.338.529-8.338.529l3.988-6.469S238.729,265.7,221.423,285.378Z" transform="translate(-212.027 -279.393)" fill="#fd8753"/>
            </g>
          </g>
        </g>
      </g>
      <g id="Group_62090" data-name="Group 62090" transform="translate(286.225 307.856)">
        <g id="Group_62089" data-name="Group 62089">
          <g id="Group_62088" data-name="Group 62088">
            <g id="Group_62087" data-name="Group 62087">
              <path id="Path_3215" data-name="Path 3215" d="M244.084,309.31s-10.06,1.4-16.3-10.075-5.328-15.981-5.328-15.981l-7.571,11s-1.059-8.012,2.413-12.867,6.7-3.611,6.7-3.611l21.585,6.8,4.71,17.914Z" transform="translate(-214.736 -277.635)" fill="#764ee8"/>
            </g>
          </g>
        </g>
      </g>
      <g id="Group_62091" data-name="Group 62091" transform="translate(287.92 336.105)">
        <path id="Path_3216" data-name="Path 3216" d="M216.513,301.828a.764.764,0,0,1-.742-.586c-1.219-5.051,2.59-9.868,2.752-10.069a.764.764,0,0,1,1.191.957c-.034.043-3.5,4.44-2.46,8.754a.764.764,0,0,1-.563.923A.745.745,0,0,1,216.513,301.828Z" transform="translate(-215.531 -290.889)"/>
      </g>
      <g id="Group_62092" data-name="Group 62092" transform="translate(315.152 342.677)">
        <path id="Path_3217" data-name="Path 3217" d="M229.071,301.753a.756.756,0,0,1-.558-.243.764.764,0,0,1,.036-1.079l6.7-6.256a.765.765,0,0,1,1.044,1.117l-6.7,6.253A.762.762,0,0,1,229.071,301.753Z" transform="translate(-228.308 -293.972)"/>
      </g>
      <g id="Group_62093" data-name="Group 62093" transform="translate(317.609 346.639)">
        <path id="Path_3218" data-name="Path 3218" d="M234.525,298.289a1.038,1.038,0,0,1-.162-.015l-4.3-.934a.764.764,0,0,1,.322-1.494l4.3.931a.764.764,0,0,1-.16,1.511Z" transform="translate(-229.461 -295.831)"/>
      </g>
      <g id="Group_62094" data-name="Group 62094" transform="translate(292.514 347.269)">
        <path id="Path_3219" data-name="Path 3219" d="M222.626,303.187a12.37,12.37,0,0,1-4.493-1.1.765.765,0,0,1-.117-1.324l6.5-4.5a.767.767,0,0,1,1.134.318c.066.151,1.6,3.7-.458,5.727A3.55,3.55,0,0,1,222.626,303.187Zm-2.545-2c1.39.437,3.265.8,4.041.032.825-.812.659-2.208.426-3.12Z" transform="translate(-217.687 -296.126)"/>
      </g>
      <g id="Group_62095" data-name="Group 62095" transform="translate(284.833 325.851)">
        <path id="Path_3220" data-name="Path 3220" d="M214.846,288.071a.764.764,0,0,1-.085-1.524l4.15-.467a.776.776,0,0,1,.844.676.767.767,0,0,1-.674.844l-4.15.467C214.9,288.069,214.874,288.071,214.846,288.071Z" transform="translate(-214.083 -286.078)"/>
      </g>
      <g id="Group_62096" data-name="Group 62096" transform="translate(295.206 326.226)">
        <path id="Path_3221" data-name="Path 3221" d="M224.072,290.332a.765.765,0,0,1-.384-.1l-4.361-2.549a.764.764,0,0,1,.772-1.319l4.361,2.549a.765.765,0,0,1-.388,1.424Z" transform="translate(-218.95 -286.254)"/>
      </g>
      <g id="Group_62098" data-name="Group 62098" transform="translate(382.939 346.14)">
        <g id="Group_62097" data-name="Group 62097" transform="translate(0)">
          <path id="Path_3222" data-name="Path 3222" d="M271.142,295.6H260.847a.791.791,0,0,0-.735.829V433.3H261.6V297.232h8.781V433.3h1.494V296.426A.793.793,0,0,0,271.142,295.6Z" transform="translate(-260.112 -295.597)" fill="#16143f"/>
        </g>
      </g>
      <g id="Group_62099" data-name="Group 62099" transform="translate(284.26 330.064)">
        <path id="Path_3223" data-name="Path 3223" d="M214.577,295.322a.775.775,0,0,1-.266-.049.763.763,0,0,1-.448-.985l1.39-3.711-.948-1.315a.763.763,0,1,1,1.238-.891l1.187,1.648a.758.758,0,0,1,.1.712l-1.533,4.094A.766.766,0,0,1,214.577,295.322Z" transform="translate(-213.814 -288.054)"/>
      </g>
      <g id="Group_62100" data-name="Group 62100" transform="translate(295.757 331.362)">
        <path id="Path_3224" data-name="Path 3224" d="M220.084,296.459a.783.783,0,0,1-.269-.047.766.766,0,0,1-.448-.985l1.385-3.7-1.39-1.837a.764.764,0,1,1,1.217-.923l1.645,2.17a.77.77,0,0,1,.107.731l-1.535,4.1A.764.764,0,0,1,220.084,296.459Z" transform="translate(-219.208 -288.663)"/>
      </g>
      <g id="Group_62101" data-name="Group 62101" transform="translate(249.519 373.987)">
        <path id="Path_3225" data-name="Path 3225" d="M227.458,354.434l7.554-45.716s-30.176-4.938-37.333,77.966C194.943,418.359,227.458,354.434,227.458,354.434Z" transform="translate(-197.514 -308.662)" fill="#e2209e"/>
      </g>
      <g id="Group_62103" data-name="Group 62103" transform="translate(241.813 452.768)">
        <g id="Group_62102" data-name="Group 62102">
          <path id="Path_3226" data-name="Path 3226" d="M200.911,348.137s25.485-3.864,28.42-2.008,13.511,18.556,11.725,21.712-6.415,1.172-6.415,1.172,2.04,2.937.3,4.987-4.813.505-4.813.505,1.769,2.289-1.694,3.2-10.35-4.578-10.35-4.578a18.994,18.994,0,0,1-14.412,2.091c-7.931-2.191-9.77-5.263-9.77-5.263Z" transform="translate(-193.899 -345.624)" fill="#f47847"/>
        </g>
      </g>
      <g id="Group_62104" data-name="Group 62104" transform="translate(256.175 392.759)">
        <path id="Path_3227" data-name="Path 3227" d="M201.4,378.241a.772.772,0,0,1-.761-.818l1.8-24.2c-7-19.877,8.822-35.381,8.984-35.539a.764.764,0,0,1,1.059,1.1c-.156.149-15.35,15.071-8.551,34.075a.761.761,0,0,1,.043.315l-1.814,24.36A.763.763,0,0,1,201.4,378.241Z" transform="translate(-200.637 -317.469)" fill="#ffb700"/>
      </g>
      <g id="Group_62111" data-name="Group 62111" transform="translate(286.252 374.857)">
        <path id="Path_3233" data-name="Path 3233" d="M226.206,315.882a14.583,14.583,0,0,1-11.309-5,.764.764,0,0,1,1.228-.91c.318.426,7.925,10.258,24-.765a.764.764,0,0,1,.863,1.262C235.041,314.539,230.117,315.882,226.206,315.882Z" transform="translate(-214.748 -309.07)" fill="#ffb700"/>
      </g>
      <g id="Group_62113" data-name="Group 62113" transform="translate(285.813 351.51)">
        <g id="Group_62112" data-name="Group 62112">
          <path id="Path_3234" data-name="Path 3234" d="M237.055,342.536s16.433-8.387,19.4-12,9.009-25.4,6.141-27.644-5.6.865-5.6.865,1.654-4.218-.889-5.341-5.744,2.244-5.744,2.244,1.5-3.389-2.771-2.345-10.953,10.7-10.953,10.7-7,.277-15.715,7.11-5.966,26.408-5.966,26.408Z" transform="translate(-214.543 -298.116)" fill="#fd8753"/>
        </g>
      </g>
      <g id="Group_62114" data-name="Group 62114" transform="translate(320.866 350.907)">
        <path id="Path_3235" data-name="Path 3235" d="M233.27,320.517a.773.773,0,0,1-.237-.038.764.764,0,0,1-.488-.963l5.113-15.676c.258-.691.784-2.643.283-3.732a1.175,1.175,0,0,0-.708-.652c-1.526-.56-4.167,1.373-4.973,2.1a.765.765,0,0,1-1.019-1.14c.39-.345,3.875-3.34,6.516-2.391a2.715,2.715,0,0,1,1.571,1.456c.855,1.859-.115,4.568-.23,4.872L234,319.988A.764.764,0,0,1,233.27,320.517Z" transform="translate(-230.989 -297.833)"/>
      </g>
      <g id="Group_62115" data-name="Group 62115" transform="translate(274.755 460.056)">
        <path id="Path_3236" data-name="Path 3236" d="M217.156,365.911a.761.761,0,0,1-.695-.445l-7.038-15.34a.763.763,0,0,1,1.388-.637l7.038,15.34a.765.765,0,0,1-.693,1.083Z" transform="translate(-209.355 -349.043)"/>
      </g>
      <g id="Group_62116" data-name="Group 62116" transform="translate(268.936 467.723)">
        <path id="Path_3237" data-name="Path 3237" d="M215.729,367.333a.759.759,0,0,1-.646-.356l-8.34-13.164a.763.763,0,1,1,1.292-.814l8.34,13.161a.763.763,0,0,1-.237,1.053A.741.741,0,0,1,215.729,367.333Z" transform="translate(-206.624 -352.641)"/>
      </g>
      <g id="Group_62117" data-name="Group 62117" transform="translate(281.285 374.855)">
        <path id="Path_3238" data-name="Path 3238" d="M275.748,309.069s35.637,16.8,24.251,73.985c-9.214,46.27-54.643,44.463-67.776,26.231-16.066-22.3-19.8-79.141-19.8-79.141l37.088-2.406,12.786,25.428Z" transform="translate(-212.418 -309.069)" fill="#e2209e"/>
      </g>
      <g id="Group_62118" data-name="Group 62118" transform="translate(327.499 412.427)">
        <path id="Path_3239" data-name="Path 3239" d="M249.17,338.343c-.081,0-.162,0-.245,0-5.518-.273-14.259-9.956-14.63-10.367a.768.768,0,0,1-.083-.908.759.759,0,0,1,.844-.341c2.743.712,16.476,4.461,17.463,8.419a2.211,2.211,0,0,1-.786,2.255A3.655,3.655,0,0,1,249.17,338.343Zm-11.84-9.4c3.174,3.167,8.41,7.714,11.669,7.873a2.238,2.238,0,0,0,1.7-.541c.428-.392.364-.639.337-.759C250.547,333.547,243.424,330.74,237.33,328.939Z" transform="translate(-234.101 -326.697)" fill="#ffb700"/>
      </g>
      <g id="Group_62119" data-name="Group 62119" transform="translate(279.561 392.763)">
        <path id="Path_3240" data-name="Path 3240" d="M240.365,407.124a.753.753,0,0,1-.407-.119c-31.221-19.839-28.36-81.871-28.224-84.5a.768.768,0,0,1,.746-.725.8.8,0,0,1,.778.691c.19,1.944,1.061,7.272,2.809,8.566a1.014,1.014,0,0,0,.853.213c2.323-.471,1.771-6.219,1.394-8.2a.762.762,0,0,1,1.409-.526c2.788,4.789,6.658,9.465,7.946,8.794,2.078-1.07,4.124-6.594,4.736-8.632a.761.761,0,0,1,.663-.539.751.751,0,0,1,.748.411c1.737,3.385,3.9,6.433,4.627,6.522,2.106-.708,1.547-6.371,1.181-8.3a.763.763,0,0,1,1.428-.492c.893,1.726,3.559,5.876,6.072,5.659l-.9-7.626a.765.765,0,0,1,.445-.786.775.775,0,0,1,.887.192c.151.173,15.32,17.484,21.48,38.64a.765.765,0,0,1-1.469.428c-4.868-16.723-15.457-31.012-19.521-36.087l.68,5.744a.768.768,0,0,1-.5.81c-2.649.968-5.132-1.377-6.733-3.474.107,2.634-.26,5.966-2.634,6.752-1.6.522-3.787-2.513-5.561-5.706-.885,2.449-2.69,6.688-4.93,7.839-2.4,1.249-5.921-3.14-8.185-6.531.09,2.7-.343,6.072-2.958,6.6a2.575,2.575,0,0,1-2.067-.484,6.846,6.846,0,0,1-1.976-3.054c.168,16.817,3.027,60.9,27.6,76.506a.764.764,0,0,1-.411,1.409Z" transform="translate(-211.609 -317.471)" fill="#ffb700"/>
      </g>
      <g id="Group_62120" data-name="Group 62120" transform="translate(235.034 450.003)">
        <path id="Path_3241" data-name="Path 3241" d="M199.395,374.109c-1.249,0-6.727-.192-7.134-3.534A7.6,7.6,0,0,1,195,364.083c-1.594-.119-3.444-.691-4.146-2.56a2.152,2.152,0,0,1,.113-1.733c.706-1.456,3.018-2.794,5.171-3.777a5.353,5.353,0,0,1-1.986-.74,3.379,3.379,0,0,1-1.513-2.236,2.654,2.654,0,0,1,.55-2.261c1.279-1.582,4.38-2.117,6.33-2.3a2.856,2.856,0,0,1-.6-2.106,2.577,2.577,0,0,1,2.012-1.848c3.935-1.275,7.24,4,7.379,4.224a.763.763,0,1,1-1.3.8c-.028-.043-2.82-4.465-5.616-3.574-.335.107-.91.341-.976.68-.1.5.654,1.426,1.23,1.905a.763.763,0,0,1-.477,1.351c-1.494.019-5.629.382-6.793,1.822a1.122,1.122,0,0,0-.239,1,1.87,1.87,0,0,0,.85,1.258c1.46.961,4.361.614,5.352.4a.777.777,0,0,1,.9.55.76.76,0,0,1-.507.923c-2.82.9-7.594,2.946-8.389,4.589a.621.621,0,0,0-.057.529c.848,2.266,5.026,1.462,5.066,1.449a.765.765,0,0,1,.514,1.422c-.047.026-4.572,2.524-4.084,6.535.228,1.865,4.322,2.232,5.778,2.187a.836.836,0,0,1,.776.75.762.762,0,0,1-.748.778Z" transform="translate(-190.718 -344.327)" fill="#ffb700"/>
      </g>
      <g id="Group_62121" data-name="Group 62121" transform="translate(285.027 350.947)">
        <path id="Path_3242" data-name="Path 3242" d="M214.94,329.13a.952.952,0,0,1-.134-.011.765.765,0,0,1-.62-.885c2.8-16,19.423-19.183,22.35-19.622.959-2,5.486-10.761,11.373-10.761h.113c1.846.034,2.986.486,3.485,1.379a2.221,2.221,0,0,1-.07,2.114L246.6,316.96a.756.756,0,0,1-.957.5.766.766,0,0,1-.5-.957l4.906-15.774c.068-.156.26-.518.121-.759-.075-.132-.456-.561-2.178-.595-5.516-.058-10.194,10.145-10.241,10.25a.769.769,0,0,1-.62.448c-.185.019-18.579,2.1-21.44,18.422A.764.764,0,0,1,214.94,329.13Z" transform="translate(-214.174 -297.852)"/>
      </g>
    </g>
    <g id="Group_62701" data-name="Group 62701" transform="translate(80.995 61)">
      <g id="Group_62690" data-name="Group 62690" transform="translate(49.253 52.211)">
        <path id="Path_3572" data-name="Path 3572" d="M170.57,53.16l12.915,24.172L152.809,57.017Z" transform="translate(-152.809 -53.16)" fill="#ffb700"/>
      </g>
      <g id="Group_62691" data-name="Group 62691" transform="translate(0 0)">
        <ellipse id="Ellipse_90" data-name="Ellipse 90" cx="49.253" cy="33.055" rx="49.253" ry="33.055" fill="#ffb700"/>
      </g>
    </g>
  </g>
  <g id="Group_63414" data-name="Group 63414">
    <rect id="Rectangle_27585" data-name="Rectangle 27585" width="375" height="386" fill="url(#linear-gradient)"/>
  </g>
</svg>
